<svg id="Capa_1" data-name="Capa 1" xmlns="http://www.w3.org/2000/svg" viewBox="0 0 15 18.55"><defs><style>.cls-1{fill:#bcbcbc;}</style></defs><title>delete-gray</title><path class="cls-1" d="M14.78,2.35H11.9a2.51,2.51,0,0,0-5,0H4A2.12,2.12,0,0,0,1.9,4.47V4.58a2.12,2.12,0,0,0,1.34,2v10a2.12,2.12,0,0,0,2.12,2.12h8.08a2.12,2.12,0,0,0,2.12-2.12v-10a2.12,2.12,0,0,0,1.34-2V4.47A2.12,2.12,0,0,0,14.78,2.35ZM9.4,1.13a1.51,1.51,0,0,1,1.48,1.22h-3A1.51,1.51,0,0,1,9.4,1.13Zm5.16,15.43a1.12,1.12,0,0,1-1.11,1.11H5.36a1.12,1.12,0,0,1-1.11-1.11V6.7H14.56v9.86Zm1.34-12a1.12,1.12,0,0,1-1.11,1.11H4A1.12,1.12,0,0,1,2.91,4.58V4.47A1.12,1.12,0,0,1,4,3.35H14.78A1.12,1.12,0,0,1,15.9,4.47V4.58h0Z" transform="translate(-1.9 -0.13)"/><path class="cls-1" d="M6.71,16.39a0.5,0.5,0,0,0,.5-0.5V10.23a0.5,0.5,0,1,0-1,0v5.66A0.5,0.5,0,0,0,6.71,16.39Z" transform="translate(-1.9 -0.13)"/><path class="cls-1" d="M9.4,16.39a0.5,0.5,0,0,0,.5-0.5V10.23a0.5,0.5,0,1,0-1,0v5.66A0.5,0.5,0,0,0,9.4,16.39Z" transform="translate(-1.9 -0.13)"/><path class="cls-1" d="M12.1,16.39a0.5,0.5,0,0,0,.5-0.5V10.23a0.5,0.5,0,1,0-1,0v5.66A0.5,0.5,0,0,0,12.1,16.39Z" transform="translate(-1.9 -0.13)"/></svg>