<svg id="Capa_1" data-name="Capa 1" xmlns="http://www.w3.org/2000/svg" viewBox="0 0 18 18.17"><defs><style>.cls-1{fill:#0c436b;}</style></defs><title>download-blue</title><path class="cls-1" d="M17.6,18.2h-17a0.51,0.51,0,0,1-.51-0.51V12a0.51,0.51,0,1,1,1,0v5.21H17.08V12a0.51,0.51,0,1,1,1,0v5.73A0.51,0.51,0,0,1,17.6,18.2Z" transform="translate(-0.11 -0.03)"/><path class="cls-1" d="M9.11,13.72A0.52,0.52,0,0,1,8.6,13.2V0.54a0.51,0.51,0,1,1,1,0V13.2A0.51,0.51,0,0,1,9.11,13.72Z" transform="translate(-0.11 -0.03)"/><path class="cls-1" d="M9.11,13.93a0.52,0.52,0,0,1-.37-0.16L2.41,7.23a0.51,0.51,0,1,1,.74-0.72l6,6.16,6-6.16a0.51,0.51,0,1,1,.74.72L9.48,13.77A0.52,0.52,0,0,1,9.11,13.93Z" transform="translate(-0.11 -0.03)"/></svg>