<svg id="Capa_1" data-name="Capa 1" xmlns="http://www.w3.org/2000/svg" viewBox="0 0 18 18"><defs><style>.cls-1{fill:#0c436b;}</style></defs><title>edit_blue</title><path class="cls-1" d="M16.83,1.17a4,4,0,0,0-5.62,0L0.91,11.46a0.52,0.52,0,0,0-.15.3L0,17.41a0.51,0.51,0,0,0,.15.43A0.52,0.52,0,0,0,.52,18H0.58L4,17.53a0.52,0.52,0,0,0-.14-1l-2.73.37,0.53-3.94L5.8,17.08a0.52,0.52,0,0,0,.36.15,0.51,0.51,0,0,0,.36-0.15l10.3-10.3A4,4,0,0,0,16.83,1.17ZM11.42,2.43l1.73,1.73-9.4,9.4L2,11.83ZM6.17,16L4.48,14.29l9.4-9.4,1.69,1.69ZM16.29,5.85L12.16,1.71A2.94,2.94,0,0,1,16.29,5.85Z" transform="translate(0 0)"/></svg>