<svg id="Capa_1" data-name="Capa 1" xmlns="http://www.w3.org/2000/svg" viewBox="0 0 53 46.88"><defs><style>.cls-1{fill:#5b8ab5;}</style></defs><title>icon-advantages</title><path class="cls-1" d="M51.79,29C54.48,26.36,53.65,21,49,21H36.76c0.46-2.59,1.14-6.89,1.11-7.29C37.61,9.83,35.17,5.16,35.06,5c-0.45-.83-2.7-2-5-1.48-2.93.63-3.23,2.5-3.22,3,0,0,.13,5.12.14,6.49-1.4,3.08-6.24,11.18-7.7,11.8a2.24,2.24,0,0,0-1.16-.33H2.68A2.37,2.37,0,0,0,.31,26.83V48.2a2.25,2.25,0,0,0,2.23,2.06H16.43A2.23,2.23,0,0,0,18.66,48V47.31a1.6,1.6,0,0,1,.75.11,6.32,6.32,0,0,0,3.44,1.28H43.57c7.75,0,6.92-6.88,6.21-7.81a5.33,5.33,0,0,0,1-5.92A5.31,5.31,0,0,0,51.79,29ZM15.95,48H2.54V26.69H15.95V48ZM48.18,28.85l-0.13.53c3.57,1,1.67,5.13-.89,5.4L47,35.31c3.42,0.87,1.79,5.11-.89,5.4L46,41.23c2.8,0.46,2.12,5.23-2.12,5.23H22.82c-1.49,0-2.84-1.7-3.94-1.7h-1V28.36A33.61,33.61,0,0,0,21.4,26c1.54-1.31,7.83-11.48,7.83-12.75s-0.14-6.78-.14-6.78,1.23-1.59,4-.43c0,0,2.32,4.35,2.55,7.81,0,0-1,7.14-1.6,9.37H48.64C52.23,23.2,51.54,28.33,48.18,28.85Z" transform="translate(-0.31 -3.37)"/></svg>