<svg id="Capa_1" data-name="Capa 1" xmlns="http://www.w3.org/2000/svg" viewBox="0 0 51 44.48"><defs><style>.cls-1{fill:#5b8ab5;}</style></defs><title>icon-disadvantages</title><path class="cls-1" d="M51.08,46.14L26.86,4.19a1.2,1.2,0,0,0-2.08,0L0.49,46.27a1.2,1.2,0,0,0,1,1.8h48.6A1.2,1.2,0,0,0,51.08,46.14ZM3.61,45.67L25.82,7.19,48,45.67H3.61Z" transform="translate(-0.33 -3.59)"/><path class="cls-1" d="M24.62,19.34V36.55a1.2,1.2,0,1,0,2.4,0V19.34A1.2,1.2,0,0,0,24.62,19.34Z" transform="translate(-0.33 -3.59)"/><path class="cls-1" d="M25.82,39.15a1.49,1.49,0,1,0,1.49,1.49A1.49,1.49,0,0,0,25.82,39.15Z" transform="translate(-0.33 -3.59)"/></svg>