<svg id="Capa_1" data-name="Capa 1" xmlns="http://www.w3.org/2000/svg" viewBox="0 0 17 22.44"><defs><style>.cls-1{fill:#5b8ab5;}</style></defs><title>ma_liste_blue</title><path class="cls-1" d="M19.34,2H15.81L16,3.08a1.26,1.26,0,0,1,0,.41h2.52V21.31h-14V3.49H7.13a1.27,1.27,0,0,1,0-.41L7.38,2H3.85a0.76,0.76,0,0,0-.76.76V22.06a0.76,0.76,0,0,0,.76.76H19.34a0.76,0.76,0,0,0,.76-0.76V2.73A0.76,0.76,0,0,0,19.34,2Z" transform="translate(-3.09 -0.37)"/><path class="cls-1" d="M16.8,7.44H11.64a0.76,0.76,0,1,0,0,1.51H16.8A0.76,0.76,0,1,0,16.8,7.44Z" transform="translate(-3.09 -0.37)"/><path class="cls-1" d="M16.8,12.08H11.64a0.76,0.76,0,0,0,0,1.51H16.8A0.76,0.76,0,0,0,16.8,12.08Z" transform="translate(-3.09 -0.37)"/><path class="cls-1" d="M5.9,7.62a0.76,0.76,0,0,0-.09,1.07L6.91,10a0.75,0.75,0,0,0,.58.27H7.54A0.76,0.76,0,0,0,8.13,9.9l2-3.21a0.76,0.76,0,0,0-1.29-.79L7.39,8.22,7,7.71A0.75,0.75,0,0,0,5.9,7.62Z" transform="translate(-3.09 -0.37)"/><path class="cls-1" d="M7.71,11.7a1.13,1.13,0,1,0,1.13,1.13A1.13,1.13,0,0,0,7.71,11.7Z" transform="translate(-3.09 -0.37)"/><path class="cls-1" d="M16.8,16.61H11.64a0.76,0.76,0,1,0,0,1.51H16.8A0.76,0.76,0,1,0,16.8,16.61Z" transform="translate(-3.09 -0.37)"/><path class="cls-1" d="M7.71,16.23a1.13,1.13,0,1,0,1.13,1.13A1.13,1.13,0,0,0,7.71,16.23Z" transform="translate(-3.09 -0.37)"/><path class="cls-1" d="M8.39,3.87H14.8a0.52,0.52,0,0,0,.51-0.63L14.78,0.78A0.52,0.52,0,0,0,14.27.37H8.92a0.52,0.52,0,0,0-.51.41L7.88,3.24a0.52,0.52,0,0,0,.1.44A0.52,0.52,0,0,0,8.39,3.87Z" transform="translate(-3.09 -0.37)"/></svg>