<svg id="Capa_1" data-name="Capa 1" xmlns="http://www.w3.org/2000/svg" viewBox="0 0 18 19.16"><defs><style>.cls-1{fill:#5b8ab5;}</style></defs><title>me_desconnecter_blue</title><path class="cls-1" d="M14.31,4.94a0.87,0.87,0,1,0-1.23,1.23l2.58,2.58H5A0.87,0.87,0,0,0,5,10.5H15.65l-2.58,2.58a0.87,0.87,0,0,0,1.23,1.23l4.06-4.06a0.87,0.87,0,0,0,0-1.23Z" transform="translate(-0.62 -0.04)"/><path class="cls-1" d="M9,19.21a0.87,0.87,0,0,0,0-1.74H2.37V1.79H9A0.87,0.87,0,0,0,9,0H1.5A0.87,0.87,0,0,0,.62.92V18.33a0.87,0.87,0,0,0,.87.87H9Z" transform="translate(-0.62 -0.04)"/></svg>