<svg id="Capa_1" data-name="Capa 1" xmlns="http://www.w3.org/2000/svg" viewBox="0 0 21 20"><defs><style>.cls-1{fill:#5b8ab5;}</style></defs><title>mes_informations_blue</title><path class="cls-1" d="M10.58,11.84A5.61,5.61,0,1,0,5,6.22,5.62,5.62,0,0,0,10.58,11.84Zm0-9.76A4.14,4.14,0,1,1,6.45,6.22,4.15,4.15,0,0,1,10.58,2.08Z" transform="translate(-0.12 -0.62)"/><path class="cls-1" d="M0.86,20.62H20.38a0.74,0.74,0,0,0,.74-0.74,7.06,7.06,0,0,0-7.05-7.05H7.17A7.06,7.06,0,0,0,.12,19.88,0.74,0.74,0,0,0,.86,20.62Zm6.31-6.31h6.9a5.57,5.57,0,0,1,5.52,4.83H1.65A5.58,5.58,0,0,1,7.17,14.31Z" transform="translate(-0.12 -0.62)"/></svg>