<svg id="Layer_1" data-name="Layer 1" xmlns="http://www.w3.org/2000/svg" viewBox="0 0 23 19.08"><defs><style>.cls-1{fill:#5b8ab5;}</style></defs><title>mes_devis_blue</title><path class="cls-1" d="M18.4,3.89h0L14,2.13H9.37L5,3.88h0L0.17,9.49,4,13.23l0.9-.92v8.9H18.4v-8.9l0.9,0.92,3.87-3.73ZM4.94,10.27L4,11.22,2.12,9.4,4.94,6.08v4.18Zm8.6-6.72a2.77,2.77,0,0,1-.22.5,1.68,1.68,0,0,1-1.58.9A1.84,1.84,0,0,1,10.08,4a3,3,0,0,1-.24-0.47h3.7ZM17,19.78H6.36V18.36H17v1.42Zm0-2.85H6.36V4.85L8.5,4a4.49,4.49,0,0,0,.35.72,3.25,3.25,0,0,0,2.9,1.65A3.12,3.12,0,0,0,14.59,4.7,4.23,4.23,0,0,0,14.89,4L17,4.85V16.94Zm1.42-6.67V6.09L21.22,9.4l-1.89,1.82Z" transform="translate(-0.17 -2.13)"/></svg>