<svg id="Calque_1" data-name="Calque 1" xmlns="http://www.w3.org/2000/svg" viewBox="0 0 50 50"><defs><style>.cls-1{fill:#133d66;}.cls-2{fill:#5c89b7;}</style></defs><title>logo_mobile</title><path class="cls-1" d="M44.42,10.42c-4.19-4.31-10.49-6.31-16.3-7.1C21.28,2.39,15.17,4.57,9.68,8.6-.74,16.25-2,30.08,7.18,39.33a.63.63,0,0,0,1-.16c6.66,8.3,21.87,9,30,3,9.33-6.91,15.46-22.27,6.21-31.78m-7.1,28.92c-8.55,7-22,4.42-28.61-3.81-.82-1-2.27.05-2.07,1.15C-.54,27.38,2.49,15.54,12.49,9.17c8.66-5.52,22.28-5.42,29.84,2.42,8,8.28,2.81,21.32-5,27.74"/><path class="cls-1" d="M20.95,16.61a4.38,4.38,0,0,0-1.44,0,3.47,3.47,0,0,0-2.31,1.3,2.19,2.19,0,0,0,1.25,3.54,2.87,2.87,0,0,0,2.75-4.82"/><path class="cls-1" d="M21.06,16.22c-1.7-.26-3.73.19-4.45,1.95a2.56,2.56,0,0,0,1.5,3.44,3.48,3.48,0,0,0,3.82-1.24c.9-1.24.87-3.29-.49-4.15-.4-.25-.8.24-.61.62a3.78,3.78,0,0,1,.66,2.63,2.39,2.39,0,0,1-2.72,1.73,1.86,1.86,0,0,1-1.2-3.06A3.69,3.69,0,0,1,20.95,17c.45.05.56-.72.11-.79"/><path class="cls-1" d="M32.5,16.42a4.6,4.6,0,0,0-2.4,0,2.56,2.56,0,0,0-1.69,1.62,2.37,2.37,0,0,0,.42,2.06,2.64,2.64,0,0,0,2.49,1,2.42,2.42,0,0,0,1.93-1.84,2.24,2.24,0,0,0-1.13-2.38"/><path class="cls-1" d="M32.67,15.82c-1.7-.33-3.9-.12-4.68,1.7a3.14,3.14,0,0,0,1.81,4A3.29,3.29,0,0,0,33.72,20c.8-1.4.26-3.92-1.6-4a1,1,0,0,0-.81,1.42c.4.64,1.2.92,1.21,1.78a1.59,1.59,0,0,1-2.17,1.39,1.81,1.81,0,0,1-1.19-2.68c.68-1.07,2.08-1.08,3.18-.87.78.15,1.12-1,.33-1.2"/><path class="cls-1" d="M17.11,29.35a2.74,2.74,0,0,1,2.47-.49,2.74,2.74,0,0,1,1.78,1,2.57,2.57,0,0,1,.38,1.08,2.29,2.29,0,0,1-.08,1.19,2.54,2.54,0,0,1-1.72,1.28,2.76,2.76,0,0,1-2.2-.05A2.07,2.07,0,0,1,16.84,32a2.78,2.78,0,0,1,.32-2"/><path class="cls-1" d="M17.44,29.68a2.81,2.81,0,0,1,3,0,1.9,1.9,0,0,1,.4,2.8,2.92,2.92,0,0,1-3,.59c-1.13-.67-.76-2-.51-3,.06-.24-.26-.46-.44-.25a2.72,2.72,0,0,0,.37,3.66c1.15.92,3.39.43,4.35-.59a2.8,2.8,0,0,0-.46-3.83,3.73,3.73,0,0,0-4.45,0c-.45.38.2,1,.65.65"/><path class="cls-1" d="M32.84,28.88A2.78,2.78,0,0,0,30,28.7a3.22,3.22,0,0,0-1.64,2.4,2,2,0,0,0,.18,1.26,1.92,1.92,0,0,0,1.23.85,3.47,3.47,0,0,0,3-.74,2.36,2.36,0,0,0,1-1.56A3.25,3.25,0,0,0,32.94,29"/><path class="cls-1" d="M33,28.56a3.27,3.27,0,0,0-4.14.51c-1,1-1.52,3-.26,4.05,2.6,2.14,7.38-1.74,4.59-4.4-.25-.24-.73,0-.61.36s.29.72.44,1.09a1.61,1.61,0,0,1-.76,2.19,2.81,2.81,0,0,1-2.88.27c-1.13-.7-.6-2.34.15-3.11a2.41,2.41,0,0,1,3.12-.32c.4.26.77-.38.37-.63"/><path class="cls-2" d="M30,17.39a13.55,13.55,0,0,0-4.71-.4,14.27,14.27,0,0,0-4.86.61,1.05,1.05,0,0,0,.28,2.06c2.81.35,5.84-.74,8.62.16,1.55.5,2.2-1.91.67-2.43"/><path class="cls-2" d="M20.57,20.9a30.56,30.56,0,0,1,6.22,5.9,20.73,20.73,0,0,1,2.37,3.41c.38.73.65,1,1.4,1,.36,0,.57-.34.61-.73.25-2.43-2.18-4.5-3.42-6a25.66,25.66,0,0,0-6.44-5.14c-.82-.51-1.52.92-.73,1.5"/><path class="cls-2" d="M30,30.85c-1.9-.06-3.8-.26-5.7-.38-1.66-.1-3.52-.62-5.09,0A.83.83,0,0,0,19,31.94c1.42.91,3.23.73,4.88.8A57.12,57.12,0,0,0,30,32.55a.85.85,0,0,0,0-1.7"/></svg>