<svg id="Layer_1" data-name="Layer 1" xmlns="http://www.w3.org/2000/svg" viewBox="0 0 35 35.6"><defs><style>.cls-1{fill:#5b8ab5;}</style></defs><title>thread</title><path class="cls-1" d="M35.14,13.83L22.46,1.15a1.29,1.29,0,0,0-1.79,0l-0.42.42a1.35,1.35,0,0,0-.36,1l0.33,4.85-4,4-5-6.06A3.23,3.23,0,0,0,12.4,3.12,3.67,3.67,0,0,0,11,.38a0.58,0.58,0,0,0-.83,0,0.58,0.58,0,0,0,0,.83,2.75,2.75,0,0,1,1,1.85,2.31,2.31,0,0,1-.79,1.36L10.08,4a3.33,3.33,0,0,0-2.5-1.07A3.68,3.68,0,0,0,5.08,4,3.33,3.33,0,0,0,4,6.51,3.56,3.56,0,0,0,5.08,9.07L5.47,9.39,5,9.84A3.33,3.33,0,0,0,4,12.34,3.56,3.56,0,0,0,5,14.84a3.33,3.33,0,0,0,2.5,1.07,3.51,3.51,0,0,0,2.5-1l0.93-1,1.49,1.23L7.08,20.53,2.23,20.2a1.35,1.35,0,0,0-1,.36L0.86,21a1.29,1.29,0,0,0,0,1.79L13.54,35.44a1.29,1.29,0,0,0,1.79,0L15.74,35a1.35,1.35,0,0,0,.36-1l-0.32-4.8L22,23.05l7.49,6.2a0.64,0.64,0,0,0,.36.12,1.1,1.1,0,0,0,.42-0.12,0.56,0.56,0,0,0,.06-0.77l-6.25-7.56,4.85-4.85,4.85,0.33h0.06A1.51,1.51,0,0,0,34.73,16l0.42-.42A1.29,1.29,0,0,0,35.14,13.83ZM23.74,11.3l-4.88-.89,2-2Zm-5.9.14,7.38,1.34,2.66,2.66L27.29,16l0-.09-8.94-2v0L17,12.29Zm8.53,5.51-3,3-3.78-4.56ZM9.19,14a2.25,2.25,0,0,1-1.67.71A2.35,2.35,0,0,1,5.86,14a2.25,2.25,0,0,1-.71-1.67,2.35,2.35,0,0,1,.71-1.67l0.53-.53,3.65,3ZM21,22.23L10.88,18.39l2.48-2.48ZM10,19.32l10.18,3.87-1.59,1.59L8.2,21.24l-0.08-.08Zm0.16,3.83,7.5,2.56-2.47,2.47Zm4.32,11.4H14.37L1.69,21.87V21.81l0.48-.42c-0.06.06-.06,0,0,0L7,21.75l0.38,0.38,0,0.07,0.15,0.05,3.29,3.26,3.77,3.8,0.29,4.82Zm11-10.3L7.26,9.28l1.1-1.1L8.77,8.59a0.58,0.58,0,0,0,.83,0,0.58,0.58,0,0,0,0-.83L7.94,6.09a0.59,0.59,0,0,0-.83.83L7.52,7.34,6.35,8.52l-0.49-.4a2.3,2.3,0,0,1,0-3.33,2.16,2.16,0,0,1,1.67-.71,2.34,2.34,0,0,1,1.67.65l6.21,7.48,0,0,7.86,9.52,0,0Zm8.93-9.46-0.48.42L29,14.84,21.45,7.29,21.15,2.4,21.57,2h0.06L34.31,14.73v0.06h0Z" transform="translate(-0.5 -0.2)"/></svg>