<svg id="Layer_1" data-name="Layer 1" xmlns="http://www.w3.org/2000/svg" viewBox="0 0 19 11.52"><defs><style>.cls-1{fill:#bcbcbc;}</style></defs><title>view_gray</title><path class="cls-1" d="M19.13,9.34C16.26,5.81,13.16,4,9.91,4A9.66,9.66,0,0,0,6,4.87a13.58,13.58,0,0,0-3,1.83A15.55,15.55,0,0,0,.42,9.37a0.7,0.7,0,0,0,0,.85c2.87,3.53,6,5.32,9.22,5.32a9.66,9.66,0,0,0,3.88-.85,13.58,13.58,0,0,0,3-1.83,15.55,15.55,0,0,0,2.63-2.66A0.7,0.7,0,0,0,19.13,9.34Zm-3.52,2.45a9.87,9.87,0,0,1-6,2.35c-2.68,0-5.29-1.47-7.78-4.37A15.34,15.34,0,0,1,4,7.78a9.87,9.87,0,0,1,6-2.35c2.68,0,5.29,1.47,7.78,4.37A15.11,15.11,0,0,1,15.61,11.79Z" transform="translate(-0.28 -4.02)"/><path class="cls-1" d="M12.35,9.09a0.7,0.7,0,0,0-.7.7A1.88,1.88,0,1,1,9.78,7.91a0.7,0.7,0,1,0,0-1.4,3.27,3.27,0,1,0,3.27,3.27A0.7,0.7,0,0,0,12.35,9.09Z" transform="translate(-0.28 -4.02)"/></svg>